<?xml version="1.0" standalone="no"?>
<!DOCTYPE svg PUBLIC "-//W3C//DTD SVG 20010904//EN"
 "http://www.w3.org/TR/2001/REC-SVG-20010904/DTD/svg10.dtd">
<svg version="1.0" xmlns="http://www.w3.org/2000/svg"
 width="300.000000pt" height="300.000000pt" viewBox="0 0 300.000000 300.000000"
 preserveAspectRatio="xMidYMid meet">
<metadata>
Created by potrace 1.10, written by Peter Selinger 2001-2011
</metadata>
<g transform="translate(0.000000,300.000000) scale(0.100000,-0.100000)"
fill="#000000" stroke="none">
<path d="M1405 2833 c-217 -27 -341 -61 -502 -139 -221 -108 -440 -315 -566
-536 -43 -74 -95 -203 -122 -298 -133 -472 4 -976 356 -1315 158 -151 302
-241 499 -308 313 -108 651 -94 961 38 304 131 564 390 694 695 129 301 145
635 45 941 -141 432 -490 762 -928 880 -133 35 -334 55 -437 42z m270 -38
c272 -32 535 -165 745 -375 202 -202 325 -440 372 -721 19 -114 14 -335 -10
-456 -19 -94 -74 -250 -124 -347 -85 -166 -271 -374 -433 -481 -526 -349
-1209 -279 -1650 169 -55 56 -118 129 -139 161 -21 33 -47 72 -56 86 -84 123
-161 352 -178 531 -25 251 14 477 119 695 68 143 138 241 254 359 196 199 466
340 715 373 47 6 99 13 115 15 32 5 204 -2 270 -9z"/>
<path d="M1300 2565 c-407 -77 -738 -387 -846 -791 -49 -186 -43 -429 17 -607
96 -287 302 -522 561 -641 161 -75 300 -105 473 -106 465 -1 874 297 1023 745
61 182 68 431 18 614 -33 116 -108 275 -172 361 -148 199 -369 347 -611 411
-103 27 -354 35 -463 14z m463 -43 c371 -100 655 -385 759 -759 19 -67 22
-104 22 -263 0 -159 -3 -196 -22 -263 -104 -375 -384 -655 -760 -760 -66 -18
-104 -21 -262 -21 -159 0 -196 3 -263 22 -374 104 -656 386 -759 759 -18 66
-22 106 -22 258 -1 158 2 190 22 265 108 394 412 686 802 771 118 26 370 21
483 -9z"/>
<path d="M987 2012 l-97 -98 207 -207 208 -207 -208 -207 -207 -207 98 -98 98
-98 207 207 207 208 207 -208 207 -207 98 98 98 98 -207 207 -208 207 208 207
207 207 -98 98 -98 98 -207 -207 -207 -208 -207 208 c-114 114 -207 207 -208
207 0 0 -44 -44 -98 -98z m269 -113 c160 -163 225 -219 251 -219 8 0 100 84
204 188 105 103 194 188 197 190 10 3 152 -132 152 -144 0 -5 -79 -88 -176
-184 -96 -96 -182 -188 -190 -203 -14 -26 -13 -31 5 -60 11 -18 97 -108 191
-202 93 -93 170 -173 170 -178 0 -12 -135 -147 -147 -147 -5 0 -81 72 -168
161 -198 198 -227 223 -257 213 -13 -4 -105 -88 -206 -188 -101 -100 -186
-182 -190 -184 -11 -3 -154 137 -150 147 1 6 87 95 191 200 103 104 187 195
187 201 0 29 -42 78 -204 240 -97 96 -176 178 -176 183 0 10 139 147 149 147
4 0 79 -72 167 -161z"/>
</g>
</svg>
